<svg xmlns="http://www.w3.org/2000/svg" viewBox="0 0 912 48" width="912" height="48"><path d="M24 42q7.5 0 12.75-5.25T42 24q0-.35-.025-.725T41.9 22.3q-1.6 1.65-3.95 2.575-2.35.925-4.95.925-4.5 0-7.65-3.15Q22.2 19.5 22.2 15q0-2.6 1-4.95T26 6.1q-.7-.05-1.15-.075Q24.4 6 24 6q-7.5 0-12.75 5.25T6 24q0 7.5 5.25 12.75T24 42m0-3q-6.25 0-10.625-4.375T9 24q0-5.1 3.225-9.225T20.35 9.3q-.65 1.75-.9 3.125T19.2 15q0 5.75 4.025 9.775T33 28.8q1.45 0 2.875-.275t2.675-.825q-1 4.55-5.05 7.925T24 39M72 41.966q7.479 0 12.714-5.234 5.236-5.234 5.237-12.711.002-.35-.022-.724-.023-.375-.072-.974-1.593 1.644-3.935 2.565-2.336.915-4.928.906-4.486-.009-7.633-3.155-3.146-3.147-3.155-7.633-.009-2.592.981-4.928.996-2.342 2.789-3.935-.699-.049-1.148-.072-.449-.024-.849-.022-7.477.001-12.711 5.237Q54.034 16.521 54.034 24q0 7.486 5.24 12.726 5.24 5.24 12.726 5.24m0-2.981q-6.244 0-10.614-4.371-4.371-4.37-4.371-10.614 0-5.097 3.225-9.218 3.219-4.117 8.109-5.465-.642 1.742-.885 3.113-.236 1.371-.227 2.576.009 5.741 4.021 9.767 4.013 4.025 9.736 4.034 1.443.002 2.861-.27 1.419-.273 2.662-.82-1 4.537-5.04 7.902-4.041 3.366-9.477 3.366m-.243-14.835q0 .002-.001.003t-.003.001h-.016q-.002 0-.003-.001t-.001-.003q0-.002.001-.004.001-.001.003-.001h.016q.002 0 .003.001.001.002.001.004m18.235-.145q-.002 0-.003-.002-.001-.001-.001-.003t.001-.003q.001-.002.003-.002h.016q.002 0 .003.002.001.001.001.003t-.001.003q-.001.002-.003.002h-.016M72 6.012q-.002 0-.003-.001-.002-.001-.002-.003v-.016q0-.002.002-.003.001-.001.003-.001t.003.001q.002.001.002.003v.016q0 .002-.002.003-.001.001-.003.001m0 36q-.002 0-.003-.001-.002-.001-.002-.003v-.016q0-.002.002-.003.001-.001.003-.001t.003.001q.002.001.002.003v.016q0 .002-.002.003-.001.001-.003.001m-12.391-30.4l-.009-.008q-.002-.002-.002-.003l.002-.004q.001-.001.003-.001t.003.001l.009.009q.001.001.001.003t-.001.003q-.001.002-.003.002t-.003-.002M84.39 36.394l-.008-.008q-.002-.002-.002-.004t.002-.003q.001-.001.003-.001t.003.001l.009.009q.001.001.001.003t-.001.003q-.002.002-.003.002-.002 0-.004-.002m-.015-24.771q.001.002.003.002t.003-.002l.009-.008q.002-.002.002-.004t-.002-.003q-.001-.001-.003-.001t-.003.001l-.009.009q-.001.001-.001.003t.001.003M59.614 36.384q.001.001.003.001t.004-.001l.008-.009q.002-.001.002-.003t-.002-.003q-.001-.002-.003-.002t-.003.002l-.009.008q-.001.002-.001.004t.001.003M120 41.864q7.415 0 12.606-5.186 5.192-5.186 5.199-12.596.006-.347-.013-.721-.019-.373-.062-.97-1.575 1.626-3.891 2.534-2.296.889-4.864.853-4.444-.036-7.581-3.172-3.136-3.137-3.172-7.581-.036-2.568.927-4.864.982-2.316 2.756-3.891-.695-.043-1.143-.062-.447-.019-.844-.013-7.41.007-12.596 5.199-5.186 5.191-5.186 12.606 0 7.443 5.21 12.654 5.211 5.21 12.654 5.21m0-2.926q-6.224 0-10.581-4.357-4.357-4.357-4.357-10.581 0-5.088 3.221-9.198 3.203-4.093 8.065-5.435-.621 1.719-.842 3.077-.196 1.358-.159 2.58.036 5.715 4.011 9.741 3.975 4.027 9.618 4.063 1.423.009 2.821-.256 1.397-.265 2.621-.803-.999 4.498-5.011 7.834-4.011 3.335-9.407 3.335m-.37-14.79q0 .008-.006.013-.005.006-.013.006h-.062q-.008 0-.013-.006-.005-.005-.005-.013t.005-.013q.005-.005.013-.005h.062q.008 0 .013.005.006.005.006.013m18.339-.129q-.008 0-.013-.006-.005-.005-.005-.013t.005-.013q.005-.006.013-.006h.062q.008 0 .013.006.005.005.005.013t-.005.013q-.005.006-.013.006h-.062M120 6.049q-.008 0-.013-.005-.006-.005-.006-.013v-.062q0-.008.006-.013.005-.005.013-.005t.013.005q.006.005.006.013v.062q0 .008-.006.013-.005.005-.013.005m0 36q-.008 0-.013-.005-.006-.005-.006-.013v-.062q0-.008.006-.013.005-.005.013-.005t.013.005q.006.005.006.013v.062q0 .008-.006.013-.005.005-.013.005m-12.388-30.413l-.035-.035q-.006-.006-.005-.013 0-.008.005-.014.006-.005.013-.005.008 0 .014.005l.034.036q.005.005.005.013 0 .007-.005.012-.005.006-.013.006-.007 0-.013-.005m24.781 24.781l-.035-.035q-.004-.005-.004-.013t.005-.013q.005-.005.012-.005.008 0 .013.005l.036.035q.005.005.005.013t-.005.013q-.006.006-.014.006-.007 0-.013-.006m-.041-24.771q.006.005.013.005.008 0 .013-.005l.035-.034q.006-.006.006-.013 0-.008-.006-.014-.005-.005-.013-.005t-.013.005l-.035.035q-.006.006-.006.013 0 .008.006.013m-24.761 24.761q.006.005.013.005.008 0 .014-.005l.034-.035q.006-.006.006-.013 0-.008-.006-.013-.005-.006-.013-.006-.007 0-.013.006l-.035.034q-.005.006-.005.014 0 .007.005.013M168 41.694q7.308 0 12.427-5.106t5.134-12.403q.014-.345.003-.716t-.047-.964q-1.544 1.595-3.817 2.483-2.228.843-4.756.762-4.375-.081-7.494-3.2-3.119-3.119-3.2-7.494-.081-2.528.835-4.756.961-2.273 2.701-3.817-.689-.036-1.134-.047-.444-.011-.837.003-7.297.015-12.403 5.134-5.106 5.119-5.106 12.427 0 7.372 5.161 12.533T168 41.694m0-2.833q-6.192 0-10.526-4.335-4.335-4.334-4.335-10.526 0-5.074 3.217-9.165 3.176-4.051 7.989-5.384-.583 1.681-.769 3.018-.127 1.337-.046 2.584.081 5.672 3.994 9.7 3.914 4.029 9.423 4.11 1.389.021 2.752-.232 1.363-.252 2.554-.776-.997 4.433-4.961 7.72-3.965 3.286-9.292 3.286m-.583-14.715q0 .018-.012.03t-.03.012h-.139q-.018 0-.03-.012t-.012-.03q0-.018.012-.03t.03-.012h.139q.018 0 .03.012t.012.03m18.514-.104q-.018 0-.03-.012t-.012-.03q0-.018.012-.03t.03-.012h.138q.018 0 .03.012t.012.03q0 .018-.012.03t-.03.012h-.138M168 6.111q-.018 0-.03-.012-.012-.011-.012-.03v-.138q0-.019.012-.03.012-.012.03-.012t.03.012q.012.011.012.03v.138q0 .019-.012.03-.012.012-.03.012m0 36q-.018 0-.03-.012t-.012-.03v-.138q0-.018.012-.03t.03-.012q.018 0 .03.012t.012.03v.138q0 .018-.012.03t-.03.012m-12.382-30.437l-.079-.078q-.012-.012-.012-.03.001-.017.012-.029.013-.013.03-.013t.03.013l.078.079q.011.012.011.029t-.011.028q-.012.012-.029.012t-.03-.011m24.78 24.781l-.078-.079q-.011-.012-.011-.03 0-.017.012-.028.012-.013.028-.013.017 0 .029.013l.08.078q.012.012.011.029 0 .018-.011.03-.013.013-.03.013-.018 0-.03-.013m-.084-24.77q.012.011.03.011.017 0 .028-.011l.079-.078q.013-.013.013-.03t-.013-.03q-.012-.011-.03-.012-.017 0-.03.012l-.077.079q-.013.013-.013.03 0 .016.013.029m-24.761 24.76q.012.011.03.012.017.001.03-.012l.077-.079q.013-.013.013-.029 0-.017-.013-.029-.012-.013-.029-.013-.016 0-.029.013l-.079.077q-.013.013-.013.03 0 .018.013.03M216 41.457q7.158 0 12.176-4.995t5.043-12.133q.025-.34.025-.709 0-.369-.026-.955-1.499 1.552-3.712 2.411-2.133.778-4.605.635-4.278-.143-7.373-3.239-3.096-3.095-3.239-7.373-.143-2.472.706-4.605.93-2.213 2.625-3.712-.681-.026-1.121-.026-.44 0-.828.025-7.138.025-12.133 5.043-4.995 5.018-4.995 12.176 0 7.273 5.092 12.365 5.092 5.092 12.365 5.092m0-2.704q-6.146 0-10.45-4.303-4.303-4.304-4.303-10.45 0-5.053 3.21-9.119 3.138-3.993 7.883-5.313-.53 1.628-.665 2.935-.033 1.307.111 2.592.145 5.611 3.971 9.642t9.148 4.175q1.342.036 2.657-.198t2.459-.739q-.994 4.343-4.891 7.561-3.898 3.217-9.13 3.217m-.881-14.61q0 .032-.021.053-.021.021-.054.021h-.246q-.033 0-.054-.021-.021-.021-.021-.053 0-.033.021-.053.021-.021.054-.021h.246q.033 0 .054.021.021.02.021.053m18.758-.069q-.033 0-.054-.021-.021-.021-.021-.053t.021-.053q.021-.021.054-.021h.246q.033 0 .054.021.021.021.021.053t-.021.053q-.021.021-.054.021h-.246M216 6.198q-.032 0-.053-.021-.021-.021-.021-.054v-.246q0-.033.021-.054.021-.021.053-.021t.053.021q.021.021.021.054v.246q0 .033-.021.054-.021.021-.053.021m0 36q-.032 0-.053-.021-.021-.021-.021-.054v-.246q0-.033.021-.054.021-.021.053-.021t.053.021q.021.021.021.054v.246q0 .033-.021.054-.021.021-.053.021m-12.373-30.47l-.141-.138q-.022-.022-.021-.053.001-.031.021-.053.022-.023.053-.023t.053.023l.138.14q.02.023.02.052 0 .03-.02.05-.019.022-.05.022-.031 0-.053-.02m24.778 24.781l-.139-.141q-.019-.022-.019-.053t.022-.051q.02-.022.049-.022.03 0 .052.022l.141.138q.022.023.021.053-.002.031-.021.054-.022.022-.053.022t-.053-.022m-.145-24.771q.022.02.053.02t.051-.02l.141-.138q.022-.022.022-.053t-.022-.053q-.023-.02-.054-.021-.03-.001-.053.021l-.138.141q-.022.022-.022.052 0 .029.022.051M203.5 36.499q.022.019.053.021.031.001.053-.021l.138-.141q.022-.022.022-.052t-.022-.052q-.022-.022-.052-.022-.029 0-.052.022l-.14.138q-.023.023-.023.053 0 .031.023.054M264 41.151q6.966 0 11.853-4.851t4.927-11.785q.039-.336.053-.701.014-.365.002-.944-1.442 1.497-3.579 2.319-2.011.696-4.41.472-4.153-.224-7.218-3.289-3.065-3.065-3.289-7.218-.224-2.399.541-4.41.891-2.137 2.527-3.579-.672-.012-1.106.002-.434.014-.816.053-6.934.04-11.785 4.927T246.849 24q0 7.145 5.003 12.148T264 41.151m0-2.537q-6.088 0-10.351-4.263-4.263-4.263-4.263-10.351 0-5.027 3.202-9.059 3.089-3.92 7.747-5.222-.463 1.559-.534 2.828.09 1.268.315 2.602.226 5.532 3.94 9.566 3.715 4.035 8.795 4.261 1.282.056 2.535-.155 1.253-.212 2.338-.691-.991 4.227-4.803 7.356-3.811 3.128-8.921 3.128m-1.265-14.476q0 .051-.033.083-.032.033-.083.033h-.385q-.051 0-.083-.033-.033-.032-.033-.083 0-.05.033-.083.032-.032.083-.032h.385q.051 0 .083.032.033.033.033.083m19.072-.022q-.05 0-.083-.033t-.033-.083q0-.05.033-.083t.083-.033h.386q.05 0 .083.033t.033.083q0 .05-.033.083t-.083.033h-.386M264 6.309q-.05 0-.083-.033t-.033-.083v-.386q0-.05.033-.083t.083-.033q.05 0 .083.033t.033.083v.386q0 .05-.033.083t-.083.033m0 36q-.05 0-.083-.033t-.033-.083v-.386q0-.05.033-.083t.083-.033q.05 0 .083.033t.033.083v.386q0 .05-.033.083t-.083.033m-12.362-30.512l-.22-.216q-.035-.034-.033-.083.002-.048.033-.083.034-.034.083-.034.048 0 .083.034l.216.22q.031.035.031.081 0 .047-.031.077-.031.035-.079.035-.049 0-.083-.031m24.775 24.78l-.216-.22q-.031-.035-.031-.083t.035-.079q.031-.035.077-.035t.081.035l.22.216q.035.035.033.083-.002.048-.033.083-.035.035-.083.035t-.083-.035m-.222-24.77q.035.031.083.031t.079-.031l.22-.216q.035-.034.035-.083 0-.048-.035-.083-.035-.03-.083-.032-.048-.002-.083.032l-.216.22q-.035.035-.035.081 0 .047.035.081m-24.76 24.76q.035.031.083.033.048.002.083-.033l.216-.22q.035-.034.035-.081 0-.046-.035-.081-.035-.034-.081-.034t-.081.034l-.22.216q-.035.035-.035.083 0 .049.035.083M312 40.778q6.731 0 11.458-4.676 4.728-4.676 4.785-11.361.057-.329.087-.69.031-.36.036-.93-1.373 1.43-3.416 2.207-1.861.594-4.172.272-4-.322-7.028-3.35-3.028-3.028-3.35-7.028-.322-2.311.339-4.172.843-2.043 2.407-3.416-.659.005-1.086.036-.428.03-.801.087-6.685.057-11.361 4.785-4.676 4.727-4.676 11.458 0 6.989 4.895 11.883 4.894 4.895 11.883 4.895m0-2.334q-6.017 0-10.231-4.213-4.213-4.214-4.213-10.231 0-4.994 3.191-8.986 3.029-3.829 7.581-5.111-.381 1.475-.372 2.697.238 1.222.563 2.614.325 5.436 3.903 9.475t8.364 4.364q1.208.081 2.385-.102 1.177-.184 2.189-.632-.987 4.085-4.694 7.105-3.706 3.02-8.666 3.02m-1.733-14.311q0 .073-.048.12-.047.047-.119.047h-.556q-.072 0-.119-.047t-.047-.12q0-.072.047-.119t.119-.047h.556q.072 0 .119.047.048.047.048.119m19.455.034q-.072 0-.119-.048-.047-.047-.047-.119t.047-.119q.047-.048.119-.048h.556q.072 0 .119.048.047.047.047.119t-.047.119q-.047.048-.119.048h-.556M312 6.444q-.072 0-.119-.047-.048-.047-.048-.119v-.556q0-.072.048-.119.047-.047.119-.047t.119.047q.048.047.048.119v.556q0 .072-.048.119-.047.047-.119.047m0 36q-.072 0-.119-.047-.048-.047-.048-.119v-.556q0-.072.048-.119.047-.047.119-.047t.119.047q.048.047.048.119v.556q0 .072-.048.119-.047.047-.119.047m-12.349-30.562l-.317-.311q-.05-.05-.047-.12.003-.069.047-.119.05-.05.12-.05.069 0 .119.05l.311.317q.045.05.045.116 0 .067-.045.111-.044.05-.114.05-.069 0-.119-.044m24.773 24.779l-.311-.317q-.045-.05-.045-.12 0-.069.05-.113.045-.05.111-.05.067 0 .117.05l.317.311q.05.05.047.119-.003.07-.047.12-.05.05-.12.05-.069 0-.119-.05m-.317-24.769q.05.044.119.044.07 0 .114-.044l.317-.311q.05-.05.05-.12 0-.069-.05-.119-.05-.045-.12-.047-.069-.003-.119.047l-.311.316q-.05.05-.05.117t.05.117m-24.76 24.759q.05.045.119.047.07.003.12-.047l.311-.316q.05-.05.05-.117t-.05-.117q-.05-.05-.117-.05-.066 0-.116.05l-.317.311q-.05.05-.05.12 0 .069.05.119M360 40.336q6.453 0 10.992-4.468 4.539-4.468 4.616-10.859.078-.322.129-.677.051-.356.075-.915-1.291 1.351-3.223 2.074-1.685.475-3.891.037-3.82-.439-6.804-3.422-2.983-2.984-3.422-6.804-.438-2.206.1-3.891.787-1.932 2.265-3.223-.643.024-1.063.075-.419.051-.783.129-6.391.077-10.859 4.616T343.664 24q0 6.804 4.766 11.57T360 40.336m0-2.092q-5.932 0-10.088-4.156-4.156-4.156-4.156-10.088 0-4.956 3.18-8.9 2.958-3.722 7.385-4.979-.285 1.375-.183 2.542.416 1.167.858 2.628.442 5.323 3.859 9.367 3.416 4.044 7.854 4.486 1.12.111 2.207-.04 1.088-.15 2.015-.562-.983 3.917-4.565 6.81-3.583 2.892-8.366 2.892m-2.287-14.117q0 .099-.064.163-.065.064-.163.064h-.756q-.098 0-.163-.064-.064-.064-.064-.163 0-.098.064-.162.065-.065.163-.065h.756q.098 0 .163.065.064.064.064.162m19.909.1q-.098 0-.163-.064-.064-.065-.064-.163t.064-.163q.065-.064.163-.064h.756q.098 0 .163.064.064.065.064.163t-.064.163q-.065.064-.163.064h-.756M360 6.605q-.098 0-.163-.064-.064-.065-.064-.163v-.756q0-.098.064-.163.065-.064.163-.064t.163.064q.064.065.064.163v.756q0 .098-.064.163-.065.064-.163.064m0 36q-.098 0-.163-.064-.064-.065-.064-.163v-.756q0-.098.064-.163.065-.064.163-.064t.163.064q.064.065.064.163v.756q0 .098-.064.163-.065.064-.163.064m-12.333-30.623l-.431-.423q-.068-.068-.065-.163.004-.094.065-.162.068-.069.162-.069.095 0 .163.069l.423.431q.061.068.061.158 0 .091-.061.152-.06.068-.155.068-.094 0-.162-.061m24.769 24.777l-.423-.431q-.061-.068-.061-.162 0-.095.068-.155.061-.068.152-.068.09 0 .158.068l.431.423q.068.068.065.163-.004.094-.065.162-.068.068-.162.068-.095 0-.163-.068m-.429-24.768q.068.061.163.061.094 0 .155-.061l.431-.423q.068-.068.068-.163 0-.094-.068-.162-.068-.061-.163-.064-.094-.004-.162.064l-.424.431q-.068.068-.068.159 0 .09.068.158M347.248 36.75q.068.061.162.065.095.004.163-.065l.423-.431q.068-.068.068-.158 0-.091-.068-.159t-.158-.068q-.091 0-.159.068l-.431.423q-.068.068-.068.163 0 .094.068.162M408 39.827q6.133 0 10.454-4.229 4.321-4.229 4.422-10.28.101-.313.175-.663.075-.349.122-.896-1.196 1.26-3.001 1.921-1.481.337-3.567-.236-3.611-.572-6.544-3.505-2.933-2.933-3.505-6.544-.573-2.086-.176-3.567.722-1.805 2.101-3.001-.626.047-1.036.122-.41.074-.763.175-6.051.101-10.28 4.422-4.229 4.321-4.229 10.454 0 6.591 4.618 11.209 4.618 4.618 11.209 4.618m0-1.815q-5.835 0-9.924-4.088-4.088-4.089-4.088-9.924 0-4.912 3.165-8.8 2.877-3.599 7.159-4.827-.172 1.26.037 2.363.619 1.104 1.197 2.644.577 5.192 3.807 9.242 3.23 4.05 7.267 4.627 1.019.145 2.003.032.984-.112 1.812-.481-.977 3.723-4.417 6.468-3.44 2.744-8.018 2.744m-2.926-13.892q0 .129-.084.213-.084.084-.212.084h-.988q-.128 0-.212-.084-.084-.084-.084-.213 0-.128.084-.212.084-.084.212-.084h.988q.128 0 .212.084.084.084.084.212m20.432.176q-.128 0-.212-.084-.084-.084-.084-.212t.084-.212q.084-.084.212-.084h.988q.128 0 .212.084.084.084.084.212t-.084.212q-.084.084-.212.084h-.988M408 6.79q-.128 0-.212-.084-.084-.084-.084-.212v-.988q0-.128.084-.212.084-.084.212-.084t.212.084q.084.084.084.212v.988q0 .128-.084.212-.084.084-.212.084m0 36q-.128 0-.212-.084-.084-.084-.084-.212v-.988q0-.128.084-.212.084-.084.212-.084t.212.084q.084.084.084.212v.988q0 .128-.084.212-.084.084-.212.084m-12.315-30.692l-.563-.553q-.089-.089-.084-.213.005-.123.084-.212.089-.089.212-.089.124 0 .213.089l.553.563q.079.089.079.207 0 .119-.079.198-.079.089-.203.089-.123 0-.212-.079m24.766 24.775l-.553-.563q-.079-.088-.079-.212 0-.123.088-.202.079-.089.198-.089.118 0 .207.089l.563.553q.089.089.084.212-.005.124-.084.212-.089.089-.212.089t-.212-.089m-.559-24.767q.089.079.213.079.123 0 .202-.079l.563-.553q.089-.089.089-.212t-.089-.212q-.089-.079-.212-.084-.124-.005-.213.084l-.553.563q-.089.089-.089.207 0 .119.089.207m-24.759 24.759q.089.079.213.084.123.005.212-.084l.553-.563q.089-.089.089-.207 0-.119-.089-.208t-.207-.089q-.119 0-.208.089l-.563.553q-.088.089-.088.213 0 .123.088.212M456 39.25q5.77 0 9.844-3.958t4.202-9.624q.128-.304.229-.646.101-.343.174-.875-1.089 1.155-2.749 1.747-1.25.181-3.2-.544-3.375-.725-6.25-3.6t-3.6-6.25q-.725-1.95-.487-3.2.647-1.66 1.915-2.749-.607.073-1.006.174-.399.101-.74.229-5.666.128-9.624 4.202T440.75 24q0 6.35 4.45 10.8 4.45 4.45 10.8 4.45m0-1.5q-5.725 0-9.738-4.013-4.012-4.012-4.012-9.737 0-4.863 3.15-8.687 2.784-3.46 6.902-4.655-.046 1.129.285 2.161.851 1.031 1.582 2.662.731 5.044 3.75 9.1t6.6 4.788q.904.183 1.771.113.867-.069 1.583-.39-.971 3.504-4.248 6.081-3.278 2.577-7.625 2.577m-3.65-13.637q0 .162-.106.268-.107.107-.269.107h-1.25q-.162 0-.269-.107-.106-.106-.106-.268 0-.163.106-.269.107-.106.269-.106h1.25q.162 0 .269.106.106.106.106.269m21.025.262q-.163 0-.269-.106Q473 24.163 473 24q0-.163.106-.269.106-.106.269-.106h1.25q.163 0 .269.106.106.106.106.269 0 .163-.106.269-.106.106-.269.106h-1.25M456 7q-.163 0-.269-.106-.106-.107-.106-.269v-1.25q0-.162.106-.269Q455.837 5 456 5q.163 0 .269.106.106.107.106.269v1.25q0 .162-.106.269Q456.163 7 456 7m0 36q-.163 0-.269-.106-.106-.106-.106-.269v-1.25q0-.163.106-.269.106-.106.269-.106.163 0 .269.106.106.106.106.269v1.25q0 .163-.106.269-.106.106-.269.106m-12.294-30.771l-.713-.7q-.112-.113-.106-.269.006-.156.106-.269.113-.112.269-.112.156 0 .269.112l.7.713q.1.112.1.262 0 .15-.1.25-.1.113-.257.113-.156 0-.268-.1m24.761 24.774l-.7-.713q-.1-.112-.1-.269 0-.156.112-.256.1-.112.25-.112t.263.112l.712.7q.113.113.107.269-.007.156-.107.269-.112.112-.268.112-.157 0-.269-.112m-.705-24.766q.112.1.269.1.156 0 .256-.1l.712-.7q.113-.113.113-.269 0-.156-.113-.269-.112-.1-.268-.106-.157-.006-.269.106l-.7.713q-.113.112-.113.262 0 .15.113.263m-24.758 24.758q.112.1.268.106.157.006.269-.106l.7-.713q.113-.112.113-.262 0-.15-.113-.263-.112-.112-.262-.112-.15 0-.263.112l-.712.7q-.113.113-.113.269 0 .156.113.269M504 38.605q5.364 0 9.162-3.655 3.798-3.655 3.957-8.891.158-.292.288-.628.13-.335.233-.851-.97 1.04-2.468 1.553-.992.007-2.789-.889-3.111-.895-5.922-3.705-2.81-2.811-3.705-5.922-.896-1.797-.837-2.789.565-1.498 1.708-2.468-.585.103-.972.233t-.714.288q-5.236.159-8.891 3.957-3.655 3.798-3.655 9.162 0 6.08 4.262 10.343 4.263 4.262 10.343 4.262m0-1.148q-5.602 0-9.529-3.928-3.928-3.927-3.928-9.529 0-4.807 3.133-8.561 2.681-3.304 6.614-4.463.097.984.564 1.935 1.108.951 2.011 2.683.903 4.878 3.686 8.942 2.782 4.063 5.855 4.966.777.226 1.512.205.736-.021 1.328-.288-.965 3.258-4.061 5.648-3.097 2.39-7.185 2.39m-4.459-13.353q0 .2-.131.331-.132.132-.332.132h-1.543q-.201 0-.332-.132-.131-.131-.131-.331 0-.201.131-.332t.332-.131h1.543q.2 0 .332.131.131.131.131.332m21.687.359q-.2 0-.331-.131-.132-.131-.132-.332t.132-.332q.131-.131.331-.131h1.544q.2 0 .331.131.132.131.132.332t-.132.332q-.131.131-.331.131h-1.544M504 7.235q-.201 0-.332-.132-.131-.131-.131-.331V5.228q0-.2.131-.331.131-.132.332-.132t.332.132q.131.131.131.331v1.544q0 .2-.131.331-.131.132-.332.132m0 36q-.201 0-.332-.132-.131-.131-.131-.331v-1.544q0-.2.131-.331.131-.132.332-.132t.332.132q.131.131.131.331v1.544q0 .2-.131.331-.131.132-.332.132m-12.271-30.86l-.88-.864q-.139-.139-.131-.332.007-.193.131-.332.139-.139.332-.139t.331.139l.865.88q.123.139.123.324t-.123.308q-.124.139-.317.139t-.331-.123m24.756 24.772l-.864-.88q-.124-.138-.124-.331t.139-.317q.124-.139.309-.139t.324.139l.88.865q.139.138.131.331-.008.193-.131.332-.139.139-.332.139t-.332-.139m-.869-24.765q.139.124.332.124t.317-.124l.879-.864q.139-.139.139-.332 0-.192-.139-.331-.139-.124-.332-.131-.193-.008-.331.131l-.865.879q-.138.139-.138.324 0 .186.138.324M490.859 37.14q.139.123.332.131.192.008.331-.131l.865-.88q.138-.139.138-.324t-.138-.324q-.139-.139-.325-.139-.185 0-.324.139l-.879.864q-.139.139-.139.332t.139.332M552 37.892q4.916 0 8.409-3.32 3.493-3.32 3.684-8.08.192-.281.354-.608.163-.326.298-.825-.837.911-2.156 1.338-.707-.186-2.336-1.269-2.819-1.083-5.559-3.822-2.739-2.74-3.822-5.559-1.083-1.629-1.222-2.336.474-1.319 1.479-2.156-.561.135-.935.298-.374.162-.686.354-4.76.191-8.08 3.684-3.32 3.493-3.32 8.409 0 5.782 4.055 9.837T552 37.892m0-.759q-5.466 0-9.299-3.834-3.834-3.833-3.834-9.299 0-4.745 3.113-8.422 2.567-3.131 6.298-4.25.253.824.871 1.685 1.393.862 2.486 2.706 1.092 4.695 3.614 8.767 2.522 4.071 5.032 5.164.635.273 1.227.305.591.033 1.044-.175-.957 2.987-3.854 5.17-2.896 2.183-6.698 2.183m-5.354-13.039q0 .243-.158.401-.159.159-.402.159h-1.867q-.243 0-.402-.159-.158-.158-.158-.401 0-.243.158-.401.159-.159.402-.159h1.867q.243 0 .402.159.158.158.158.401m22.42.466q-.242 0-.401-.159-.159-.158-.159-.401 0-.243.159-.401.159-.159.401-.159h1.868q.242 0 .401.159.159.158.159.401 0 .243-.159.401-.159.159-.401.159h-1.868M552 7.494q-.243 0-.401-.159-.159-.159-.159-.401V5.066q0-.242.159-.401.158-.159.401-.159.243 0 .401.159.159.159.159.401v1.868q0 .242-.159.401-.158.159-.401.159m0 36q-.243 0-.401-.159-.159-.159-.159-.401v-1.868q0-.242.159-.401.158-.159.401-.159.243 0 .401.159.159.159.159.401v1.868q0 .242-.159.401-.158.159-.401.159m-12.246-30.957l-1.064-1.046q-.168-.168-.159-.402.009-.233.159-.401.168-.168.401-.168.234 0 .402.168l1.045 1.064q.15.168.15.393 0 .224-.15.373-.149.168-.383.168-.233 0-.401-.149m24.751 24.77l-1.045-1.065q-.15-.168-.15-.401t.168-.383q.15-.168.374-.168t.392.168l1.064 1.046q.168.168.159.401-.009.234-.159.402-.168.168-.401.168-.234 0-.402-.168m-1.05-24.764q.169.15.402.15t.383-.15l1.064-1.045q.168-.168.168-.402 0-.233-.168-.401-.168-.15-.401-.159-.234-.009-.402.159l-1.046 1.064q-.168.168-.168.392t.168.392M538.699 37.3q.168.15.401.159.233.009.402-.159l1.045-1.064q.168-.168.168-.392t-.168-.392q-.168-.168-.392-.168t-.392.168l-1.064 1.045q-.168.168-.168.402 0 .233.168.401M600 37.111q4.424 0 7.584-2.953 3.159-2.953 3.387-7.193.227-.267.426-.585.198-.317.368-.796-.692.77-1.815 1.102-.394-.397-1.839-1.686-2.5-1.289-5.161-3.95-2.661-2.661-3.95-5.161-1.289-1.445-1.644-1.839.373-1.123 1.227-1.815-.535.17-.894.368-.359.199-.654.426-4.24.228-7.193 3.387-2.953 3.16-2.953 7.584 0 5.456 3.828 9.283 3.827 3.828 9.283 3.828m0-.333q-5.317 0-9.047-3.731-3.731-3.73-3.731-9.047 0-4.678 3.092-8.269 2.442-2.942 5.95-4.017.425.647 1.208 1.411 1.706.764 3.006 2.731 1.3 4.494 3.536 8.575 2.236 4.08 4.13 5.38.481.325.914.416.432.091.734-.052-.949 2.69-3.626 4.647-2.677 1.956-6.166 1.956m-6.333-12.695q0 .289-.189.478t-.478.189h-2.222q-.289 0-.478-.189t-.189-.478q0-.289.189-.477.189-.189.478-.189H593q.289 0 .478.189.189.188.189.477m23.222.584q-.289 0-.478-.189t-.189-.478q0-.289.189-.478t.478-.189h2.222q.289 0 .478.189t.189.478q0 .289-.189.478t-.478.189h-2.222M600 7.778q-.289 0-.478-.189t-.189-.478V4.889q0-.289.189-.478t.478-.189q.289 0 .478.189t.189.478v2.222q0 .289-.189.478t-.478.189m0 36q-.289 0-.478-.189t-.189-.478v-2.222q0-.289.189-.478t.478-.189q.289 0 .478.189t.189.478v2.222q0 .289-.189.478t-.478.189m-12.218-31.064l-1.267-1.245q-.2-.2-.189-.477.011-.278.189-.478.2-.2.478-.2.278 0 .478.2l1.244 1.266q.178.2.178.467t-.178.445q-.178.2-.455.2-.278 0-.478-.178m24.745 24.768l-1.244-1.267q-.178-.2-.178-.478 0-.278.2-.455.178-.2.445-.2.266 0 .466.2l1.267 1.244q.2.2.189.478-.011.278-.189.478-.2.2-.478.2-.278 0-.478-.2m-1.248-24.762q.2.178.478.178.278 0 .456-.178l1.266-1.245q.2-.2.2-.477 0-.278-.2-.478-.2-.178-.478-.189-.277-.011-.477.189l-1.245 1.267q-.2.2-.2.466 0 .267.2.467m-24.756 24.756q.2.178.478.189.278.011.478-.189l1.244-1.267q.2-.2.2-.467 0-.266-.2-.466t-.467-.2q-.266 0-.466.2l-1.267 1.244q-.2.2-.2.478 0 .278.2.478M648 36.262q3.89 0 6.687-2.554 2.796-2.554 3.063-6.228.267-.253.505-.561.237-.307.445-.765-.534.618-1.444.847-.055-.627-1.299-2.14-2.153-1.513-4.729-4.089-2.576-2.576-4.089-4.729-1.513-1.244-2.104-1.299.265-.91.955-1.444-.506.208-.85.445-.343.238-.62.505-3.674.267-6.228 3.063-2.554 2.797-2.554 6.687 0 5.101 3.581 8.681 3.58 3.581 8.681 3.581m0 .13q-5.155 0-8.773-3.619-3.619-3.618-3.619-8.773 0-4.604 3.069-8.104 2.305-2.736 5.572-3.763.612.456 1.574 1.114 2.045.657 3.571 2.757 1.526 4.277 3.451 8.367 1.926 4.09 3.151 5.616.312.381.573.536.26.154.397.082-.94 2.367-3.379 4.077T648 36.392m-7.398-12.32q0 .339-.222.56-.222.222-.561.222h-2.608q-.339 0-.56-.222-.222-.221-.222-.56 0-.339.222-.561.221-.222.56-.222h2.608q.339 0 .561.222.222.222.222.561m24.094.71q-.339 0-.561-.221-.221-.222-.221-.561 0-.339.221-.561.222-.221.561-.221h2.608q.339 0 .561.221.221.222.221.561 0 .339-.221.561-.222.221-.561.221h-2.608M648 8.086q-.339 0-.561-.221-.221-.222-.221-.561V4.696q0-.339.221-.561.222-.221.561-.221.339 0 .561.221.221.222.221.561v2.608q0 .339-.221.561-.222.221-.561.221m0 36q-.339 0-.561-.221-.221-.222-.221-.561v-2.608q0-.339.221-.561.222-.221.561-.221.339 0 .561.221.221.222.221.561v2.608q0 .339-.221.561-.222.221-.561.221m-12.188-31.18l-1.486-1.46q-.235-.235-.222-.561.013-.326.222-.561.234-.234.56-.234.326 0 .561.234l1.461 1.487q.208.235.208.548 0 .313-.208.521-.209.235-.535.235-.326 0-.561-.209m24.739 24.766l-1.46-1.487q-.209-.235-.209-.561 0-.326.235-.534.209-.235.522-.235.312 0 .547.235l1.487 1.46q.234.235.221.561-.013.326-.221.561-.235.234-.561.234-.326 0-.561-.234m-1.463-24.76q.234.208.56.208.326 0 .535-.208l1.487-1.461q.234-.235.234-.561 0-.326-.234-.56-.235-.209-.561-.222-.326-.013-.561.222l-1.46 1.486q-.235.235-.235.548 0 .313.235.548m-24.756 24.755q.235.208.561.221.326.013.561-.221l1.46-1.487q.235-.235.235-.548 0-.313-.235-.547-.234-.235-.547-.235-.313 0-.548.235l-1.487 1.46q-.234.235-.234.561 0 .326.234.561M696 35.346q3.314 0 5.718-2.124 2.405-2.124 2.714-5.186.31-.237.589-.534.28-.297.528-.733-.363.454-1.043.571.311-.875-.716-2.629-1.778-1.754-4.262-4.239-2.485-2.484-4.239-4.262-1.754-1.027-2.599-.716.147-.68.659-1.043-.475.248-.801.528-.327.279-.584.589-3.062.309-5.186 2.714-2.124 2.404-2.124 5.718 0 4.717 3.315 8.031 3.314 3.315 8.031 3.315m0 .629q-4.98 0-8.477-3.498-3.498-3.497-3.498-8.477 0-4.525 3.043-7.924 2.159-2.515 5.165-3.49.813.249 1.969.792 2.412.543 4.182 2.787 1.769 4.041 3.359 8.141 1.59 4.101 2.092 5.87.131.443.205.666.075.223.033.227-.93 2.018-3.111 3.462-2.181 1.444-4.962 1.444m-8.548-11.916q0 .393-.257.651-.257.257-.651.257h-3.024q-.393 0-.651-.257-.257-.258-.257-.651t.257-.65q.258-.257.651-.257h3.024q.394 0 .651.257t.257.65m25.036.848q-.394 0-.651-.257t-.257-.65q0-.393.257-.65t.651-.257h3.024q.394 0 .651.257t.257.65q0 .393-.257.65t-.651.257h-3.024M696 8.42q-.393 0-.65-.257t-.257-.651V4.488q0-.394.257-.651t.65-.257q.393 0 .65.257t.257.651v3.024q0 .394-.257.651t-.65.257m0 36q-.393 0-.65-.257t-.257-.651v-3.024q0-.394.257-.651t.65-.257q.393 0 .65.257t.257.651v3.024q0 .394-.257.651t-.65.257m-12.155-31.306l-1.724-1.694q-.272-.272-.257-.65.015-.378.257-.65.272-.272.65-.272t.65.272l1.694 1.724q.242.272.242.635t-.242.605q-.242.272-.62.272t-.65-.242m24.732 24.763l-1.694-1.724q-.242-.272-.242-.65 0-.379.273-.621.242-.272.605-.272t.635.272l1.724 1.694q.272.273.257.651-.015.378-.257.65-.272.272-.65.272-.379 0-.651-.272m-1.696-24.758q.272.242.65.242t.62-.242l1.724-1.694q.272-.272.272-.651 0-.378-.272-.65-.272-.242-.65-.257-.378-.015-.65.257l-1.694 1.724q-.272.272-.272.635t.272.636m-24.755 24.754q.273.242.651.257.378.015.65-.257l1.694-1.724q.272-.273.272-.635 0-.363-.272-.636-.272-.272-.635-.272t-.635.272l-1.725 1.694q-.272.272-.272.65 0 .379.272.651M744 34.361q2.694 0 4.678-1.661 1.983-1.661 2.339-4.067.355-.22.68-.506.324-.285.617-.696-.181.276-.614.274.706-1.141-.089-3.155-1.375-2.014-3.761-4.4-2.386-2.386-4.4-3.761-2.014-.795-3.132-.089.021-.433.343-.614-.442.293-.75.617-.308.325-.544.68-2.406.356-4.067 2.339-1.661 1.984-1.661 4.678 0 4.306 3.028 7.333 3.027 3.028 7.333 3.028m0 1.167q-4.792 0-8.16-3.368-3.368-3.368-3.368-8.16 0-4.44 3.017-7.732 2.001-2.276 4.726-3.196 1.03.027 2.395.447 2.805.42 4.837 2.818 2.031 3.788 3.261 7.9t.955 6.143q-.065.508-.19.805-.126.296-.358.382-.92 1.644-2.824 2.803-1.905 1.158-4.291 1.158m-9.783-11.482q0 .451-.295.746-.296.295-.747.295h-3.472q-.452 0-.747-.295t-.295-.746q0-.452.295-.747t.747-.295h3.472q.451 0 .747.295.295.295.295.747m26.047.996q-.451 0-.747-.295-.295-.296-.295-.747t.295-.747q.296-.295.747-.295h3.472q.452 0 .747.295.295.296.295.747t-.295.747q-.295.295-.747.295h-3.472M744 8.778q-.451 0-.747-.295-.295-.295-.295-.747V4.264q0-.451.295-.747.296-.295.747-.295t.747.295q.295.296.295.747v3.472q0 .452-.295.747-.296.295-.747.295m0 36q-.451 0-.747-.295-.295-.295-.295-.747v-3.472q0-.451.295-.747.296-.295.747-.295t.747.295q.295.296.295.747v3.472q0 .452-.295.747-.296.295-.747.295m-12.12-31.44l-1.979-1.945q-.313-.312-.295-.746.017-.434.295-.747.312-.312.746-.312t.747.312l1.944 1.979q.278.313.278.729 0 .417-.278.695-.277.312-.711.312-.434 0-.747-.277m24.725 24.759l-1.944-1.979q-.278-.312-.278-.746t.312-.712q.278-.313.695-.313.416 0 .729.313l1.979 1.944q.313.313.295.747-.017.434-.295.746-.312.313-.746.313t-.747-.313m-1.946-24.756q.312.278.746.278t.712-.278l1.979-1.945q.313-.312.313-.746t-.313-.747q-.312-.277-.746-.295-.434-.017-.747.295l-1.944 1.98q-.313.312-.313.729 0 .416.313.729m-24.754 24.753q.313.278.747.295.434.018.746-.295l1.945-1.979q.312-.312.312-.729t-.312-.729q-.313-.313-.729-.313-.417 0-.73.313l-1.979 1.944q-.312.313-.312.747t.312.746M792 33.309q2.032 0 3.566-1.167 1.533-1.167 1.937-2.87.405-.203.777-.476.373-.273.713-.659.015.088-.154-.042 1.126-1.426.581-3.717-.945-2.292-3.226-4.572-2.28-2.281-4.572-3.226-2.291-.545-3.701.581-.114-.169.005-.154-.407.34-.695.713-.289.372-.503.777-1.703.404-2.87 1.937-1.167 1.534-1.167 3.566 0 3.865 2.722 6.587 2.722 2.722 6.587 2.722m0 1.74q-4.591 0-7.82-3.229T780.951 24q0-4.349 2.988-7.526 1.832-2.022 4.258-2.883 1.261-.21 2.848.078 3.227.289 5.538 2.852 2.311 3.518 3.156 7.642.844 4.123-.26 6.435-.273.577-.613.953-.339.376-.775.549-.909 1.244-2.518 2.097-1.609.852-3.573.852m-11.104-11.018q0 .514-.336.85-.335.336-.849.336h-3.951q-.513 0-.849-.336-.336-.336-.336-.85 0-.513.336-.849.336-.336.849-.336h3.951q.514 0 .849.336.336.336.336.849m27.129 1.154q-.514 0-.85-.336-.335-.335-.335-.849t.335-.849q.336-.336.85-.336h3.95q.514 0 .85.336.335.335.335.849t-.335.849q-.336.336-.85.336h-3.95M792 9.16q-.514 0-.849-.335-.336-.336-.336-.85v-3.95q0-.514.336-.85.335-.335.849-.335t.849.335q.336.336.336.85v3.95q0 .514-.336.85-.335.335-.849.335m0 36q-.514 0-.849-.335-.336-.336-.336-.85v-3.95q0-.514.336-.85.335-.335.849-.335t.849.335q.336.336.336.85v3.95q0 .514-.336.85-.335.335-.849.335m-12.082-31.584l-2.252-2.212q-.356-.356-.336-.849.02-.494.336-.85.355-.355.849-.355t.85.355l2.212 2.252q.316.356.316.83t-.316.79q-.316.355-.81.355-.494 0-.849-.316m24.717 24.757l-2.213-2.252q-.316-.355-.316-.849t.356-.81q.316-.356.79-.356.474 0 .83.356l2.252 2.212q.355.356.335.85-.019.493-.335.849-.356.356-.85.356t-.849-.356m-2.214-24.754q.356.316.849.316.494 0 .81-.316l2.252-2.213q.356-.355.356-.849t-.356-.85q-.355-.316-.849-.335-.494-.02-.85.335l-2.212 2.252q-.356.356-.356.83t.356.83m-24.752 24.752q.355.316.849.336.494.019.849-.336l2.213-2.252q.355-.356.355-.83t-.355-.829q-.356-.356-.83-.356t-.829.356l-2.252 2.212q-.356.356-.356.849 0 .494.356.85M840 32.188q1.328 0 2.382-.64t1.511-1.597q.456-.184.88-.444t.814-.617q.223-.114.335-.38 1.575-1.729 1.294-4.316-.486-2.586-2.655-4.755-2.169-2.169-4.755-2.655-2.587-.281-4.308 1.294-.257.112-.356.335-.368.39-.636.814-.268.424-.457.88-.957.457-1.597 1.511-.64 1.054-.64 2.382 0 3.397 2.395 5.793 2.396 2.395 5.793 2.395m0 2.352q-4.377 0-7.458-3.082-3.082-3.081-3.082-7.458 0-4.253 2.957-7.307 1.653-1.75 3.76-2.548 1.508-.464 3.331-.315 3.675.148 6.284 2.887 2.609 3.23 3.044 7.367.435 4.136-1.553 6.745-.496.653-1.062 1.112-.567.459-1.221.726-.897.818-2.191 1.345-1.295.528-2.809.528m-12.509-10.524q0 .58-.379.959t-.959.379h-4.46q-.58 0-.959-.379t-.379-.959q0-.58.379-.959t.959-.379h4.46q.58 0 .959.379t.379.959m28.279 1.322q-.58 0-.959-.379t-.379-.959q0-.58.379-.959t.959-.379h4.46q.58 0 .959.379t.379.959q0 .58-.379.959t-.959.379h-4.46M840 9.568q-.58 0-.959-.379t-.379-.959V3.77q0-.58.379-.959t.959-.379q.58 0 .959.379t.379.959v4.46q0 .58-.379.959t-.959.379m0 36q-.58 0-.959-.379t-.379-.959v-4.46q0-.58.379-.959t.959-.379q.58 0 .959.379t.379.959v4.46q0 .58-.379.959t-.959.379M827.958 13.83l-2.543-2.497q-.401-.401-.379-.959.023-.557.379-.959.402-.401.959-.401.558 0 .959.401l2.498 2.542q.357.402.357.937t-.357.892q-.357.401-.915.401-.557 0-.958-.357m24.708 24.754l-2.497-2.542q-.357-.402-.357-.959 0-.558.401-.914.357-.402.892-.402.536 0 .937.402l2.542 2.497q.402.402.379.959-.022.558-.379.959-.401.401-.959.401-.557 0-.959-.401m-2.498-24.752q.402.356.959.356.558 0 .914-.356l2.542-2.498q.402-.401.402-.959 0-.557-.402-.959-.401-.356-.958-.379-.558-.022-.959.379l-2.498 2.542q-.401.402-.401.937t.401.937m-24.751 24.751q.401.357.959.379.557.022.959-.379l2.497-2.542q.402-.402.402-.937t-.402-.936q-.401-.402-.936-.402t-.937.402l-2.542 2.497q-.401.401-.401.959 0 .557.401.959M888 31q.58 0 1.126-.082.546-.082 1.058-.246.512-.164.99-.41.478-.246.922-.574.444-.328.854-.738Q895 26.9 895 24q0-2.9-2.05-4.95Q890.9 17 888 17q-2.9 0-4.95 2.05-.41.41-.738.854t-.574.922q-.246.478-.41.99-.164.512-.246 1.058Q881 23.42 881 24q0 2.9 2.05 4.95Q885.1 31 888 31m0 3q-4.15 0-7.075-2.925T878 24q0-4.15 2.925-7.075 1.462-1.462 3.231-2.194Q885.925 14 888 14q4.15 0 7.075 2.925T898 24q0 4.15-2.925 7.075-.731.731-1.539 1.28-.808.548-1.692.914-.885.365-1.846.548-.96.183-1.998.183m-14-10q0 .65-.425 1.075-.425.425-1.075.425h-5q-.65 0-1.075-.425Q866 24.65 866 24q0-.65.425-1.075.425-.425 1.075-.425h5q.65 0 1.075.425Q874 23.35 874 24m29.5 1.5q-.65 0-1.075-.425Q902 24.65 902 24q0-.65.425-1.075.425-.425 1.075-.425h5q.65 0 1.075.425Q910 23.35 910 24q0 .65-.425 1.075-.425.425-1.075.425h-5M888 10q-.65 0-1.075-.425-.425-.425-.425-1.075v-5q0-.65.425-1.075Q887.35 2 888 2q.65 0 1.075.425.425.425.425 1.075v5q0 .65-.425 1.075Q888.65 10 888 10m0 36q-.65 0-1.075-.425-.425-.425-.425-1.075v-5q0-.65.425-1.075Q887.35 38 888 38q.65 0 1.075.425.425.425.425 1.075v5q0 .65-.425 1.075Q888.65 46 888 46m-12-31.9l-2.85-2.8q-.45-.45-.425-1.075.025-.625.425-1.075.45-.45 1.075-.45t1.075.45l2.8 2.85q.4.45.4 1.05 0 .6-.4 1-.4.45-1.025.45-.625 0-1.075-.4m24.7 24.75L897.9 36q-.4-.45-.4-1.075t.45-1.025q.4-.45 1-.45t1.05.45l2.85 2.8q.45.45.425 1.075-.025.625-.425 1.075-.45.45-1.075.45t-1.075-.45m-2.8-24.75q.45.4 1.075.4t1.025-.4l2.85-2.8q.45-.45.45-1.075t-.45-1.075q-.45-.4-1.075-.425-.625-.025-1.075.425L897.9 12q-.45.45-.45 1.05 0 .6.45 1.05m-24.75 24.75q.45.4 1.075.425.625.025 1.075-.425l2.8-2.85q.45-.45.45-1.05 0-.6-.45-1.05-.45-.45-1.05-.45-.6 0-1.05.45l-2.85 2.8q-.45.45-.45 1.075t.45 1.075M888 24" fill="#000000"/></svg>