<svg xmlns="http://www.w3.org/2000/svg" viewBox="0 0 380 20" width="380" height="20"><path d="M10 12.542q.212 0 .412-.03.2-.029.388-.088.187-.06.362-.148.175-.089.338-.208.162-.118.312-.266.75-.74.75-1.802t-.75-1.812q-.75-.75-1.812-.75t-1.802.75q-.148.15-.266.312-.119.163-.208.338-.088.175-.148.362-.059.188-.088.388-.03.2-.03.412 0 1.062.74 1.802t1.802.74m0 1.396q-1.646 0-2.792-1.146T6.062 10q0-.412.072-.792.071-.381.214-.732.144-.35.359-.669.214-.32.501-.609Q8.354 6.042 10 6.042t2.802 1.156Q13.958 8.354 13.958 10q0 .823-.289 1.521t-.867 1.271Q11.646 13.938 10 13.938M4.458 10q0-.292-.208-.5-.208-.208-.5-.208h-2q-.292 0-.49.208t-.198.5q0 .292.198.49t.49.198h2q.292 0 .5-.209.208-.208.208-.479m13.792-.708h-2q-.292 0-.49.208t-.198.5q0 .292.198.49t.49.198h2q.292 0 .5-.209.208-.208.208-.479 0-.292-.208-.5-.208-.208-.5-.208M9.312 1.75v2q0 .292.209.49.208.198.479.198.292 0 .5-.198.208-.198.208-.49v-2q0-.292-.208-.5-.208-.208-.5-.208-.292 0-.49.208t-.198.5m0 14.5q0-.292.198-.5.198-.208.49-.208t.5.208q.208.208.208.5v2q0 .292-.208.49t-.5.198q-.271 0-.479-.198-.209-.198-.209-.49v-2M6.062 5.062L5 4.021q-.188-.209-.479-.209-.292 0-.479.23-.23.208-.23.479t.23.479l1.041 1.062q.209.209.5.219.292.011.479-.198.23-.229.23-.51t-.23-.511m8.876 8.876L15.979 15q.209.188.209.458 0 .271-.23.5-.208.209-.468.219-.261.011-.49-.219l-1.062-1.041q-.209-.209-.219-.49-.011-.281.219-.51.208-.209.489-.209t.511.23m0-7.876q-.23.23-.511.23t-.51-.23q-.209-.208-.198-.489.01-.281.219-.511L15 4.021q.229-.209.49-.198.26.01.468.219.23.208.23.468 0 .261-.209.49l-1.041 1.062M4.042 15l1.041-1.062q.209-.209.49-.209t.51.209q.209.208.198.489-.01.281-.219.49L5 15.958q-.188.23-.458.219-.271-.01-.5-.219-.209-.187-.219-.479-.011-.291.219-.479M10 10" fill="#3786fb"/><path d="M30 12.574q.232 0 .445-.044t.399-.124q.186-.06.36-.15.173-.09.334-.209.157-.112.3-.256.738-.731.731-1.786-.013-1.054-.767-1.807-.753-.754-1.807-.767-1.055-.007-1.786.731-.144.143-.256.3-.119.161-.209.334-.09.174-.15.36-.08.186-.124.399-.044.213-.044.445 0 1.075.75 1.824.749.75 1.824.75m0 1.376q-1.651 0-2.8-1.15-1.15-1.149-1.15-2.8 0-.421.079-.809.078-.389.232-.741.142-.345.354-.659.213-.314.498-.598 1.137-1.131 2.783-1.119 1.646.012 2.811 1.16 1.151 1.147 1.154 2.781.003.816-.281 1.509-.291.704-.876 1.281Q31.647 13.95 30 13.95m-5.504-3.948q0-.29-.206-.496-.207-.207-.497-.207h-1.985q-.29 0-.487.207-.197.206-.197.496 0 .29.197.486.197.197.487.197h1.985q.29 0 .497-.207.206-.207.206-.476m13.747-.705h-1.986q-.29 0-.486.207-.197.206-.197.496 0 .29.197.486.196.197.486.197h1.986q.29 0 .496-.208.207-.206.207-.475 0-.29-.207-.496-.206-.207-.496-.207m-8.926-7.54v1.986q0 .29.208.486.206.197.475.197.29 0 .496-.197.207-.196.207-.486V1.757q0-.29-.207-.496-.206-.207-.496-.207-.29 0-.486.207-.197.206-.197.496m0 14.5q0-.29.197-.496.196-.207.486-.207t.496.207q.207.206.207.496v1.986q0 .29-.207.486-.206.197-.496.197-.269 0-.475-.197-.208-.196-.208-.486v-1.986M26.055 5.062L25 4.028q-.186-.207-.475-.207-.29 0-.476.228-.228.207-.228.476t.228.475l1.034 1.055q.207.207.496.217.29.011.476-.196.228-.228.228-.507t-.228-.507m8.883 8.883L35.972 15q.207.186.207.454 0 .269-.228.497-.207.207-.465.217-.259.011-.486-.217l-1.055-1.034q-.207-.207-.217-.486-.011-.279.217-.507.207-.207.486-.207t.507.228m0-7.89q-.228.228-.507.228t-.507-.228q-.207-.207-.196-.486.01-.279.217-.507L35 4.028q.227-.207.486-.196.258.01.465.217.228.207.228.465 0 .259-.207.486l-1.034 1.055M24.049 15l1.034-1.055q.207-.207.486-.207t.507.207q.207.207.196.486-.01.279-.217.486L25 15.951q-.186.228-.454.217-.269-.01-.497-.217-.207-.186-.217-.476-.011-.289.217-.475M30 10" fill="#3886fa"/><path d="M50 12.686q.3 0 .56-.095.26-.095.442-.247.181-.065.35-.158.168-.093.324-.216.137-.089.253-.217.697-.701.664-1.728-.059-1.028-.825-1.793-.765-.766-1.793-.825-1.027-.033-1.728.663-.128.117-.217.254-.123.156-.216.324-.093.169-.158.35-.152.182-.247.442t-.095.56q0 1.122.782 1.904.782.782 1.904.782m0 1.305q-1.668 0-2.829-1.162-1.162-1.161-1.162-2.829 0-.455.103-.87.102-.414.295-.775.134-.324.34-.619.205-.295.482-.561 1.109-1.041 2.755-.987 1.646.054 2.841 1.172 1.132 1.118 1.146 2.708.014.794-.251 1.465-.301.729-.907 1.316-1.164 1.142-2.813 1.142m-5.369-3.982q0-.283-.201-.484t-.484-.201h-1.934q-.283 0-.474.201-.192.201-.192.484 0 .282.192.474.191.191.474.191h1.934q.283 0 .484-.202.201-.201.201-.463m13.587-.694h-1.935q-.282 0-.474.201-.191.201-.191.484 0 .282.191.474.192.191.474.191h1.935q.282 0 .483-.202.201-.201.201-.463 0-.283-.201-.484t-.483-.201m-8.883-7.533v1.935q0 .282.202.474.201.191.463.191.283 0 .484-.191.201-.192.201-.474V1.782q0-.282-.201-.483T50 1.098q-.282 0-.474.201-.191.201-.191.483m0 14.5q0-.282.191-.483.192-.201.474-.201.283 0 .484.201t.201.483v1.935q0 .282-.201.474-.201.191-.484.191-.262 0-.463-.191-.202-.192-.202-.474v-1.935m-3.306-11.22l-1.027-1.007q-.182-.202-.463-.202-.283 0-.464.222-.222.201-.222.463t.222.464l1.007 1.027q.202.202.484.212.282.01.463-.192.223-.221.223-.493t-.223-.494m8.909 8.909l1.007 1.027q.202.182.202.443 0 .262-.222.484-.201.202-.453.211-.252.011-.474-.211l-1.027-1.007q-.202-.202-.212-.474-.01-.272.212-.493.201-.203.473-.203.272 0 .494.223m0-7.942q-.222.222-.494.222t-.493-.222q-.202-.201-.192-.473.01-.272.212-.494l1.027-1.007q.222-.202.474-.192.252.01.453.212.222.201.222.453t-.202.474l-1.007 1.027m-10.863 8.969l1.007-1.027q.202-.202.474-.202.272 0 .493.202.202.201.192.473-.01.272-.212.474l-1.027 1.007q-.182.222-.443.212-.263-.01-.484-.212-.202-.181-.212-.463-.01-.282.212-.464M50 10" fill="#3a87f8"/><path d="M70 12.916q.441 0 .797-.199.355-.199.527-.5.171-.073.33-.174.158-.101.303-.23.097-.041.159-.139.611-.639.526-1.61-.153-.972-.943-1.763-.791-.79-1.763-.943-.971-.087-1.61.525-.098.063-.139.16-.129.145-.23.303-.101.159-.174.33-.301.172-.5.527-.199.356-.199.797 0 1.218.849 2.067.849.849 2.067.849m0 1.159q-1.703 0-2.889-1.186-1.186-1.186-1.186-2.889 0-.524.152-.993t.423-.846q.12-.283.31-.538.191-.255.453-.484 1.048-.858 2.694-.718t2.904 1.198q1.094 1.058 1.131 2.557.037.747-.19 1.375-.321.779-.971 1.389-1.178 1.135-2.831 1.135m-5.093-4.052q0-.267-.191-.457-.19-.191-.457-.191h-1.83q-.267 0-.448.191-.181.19-.181.457t.181.448q.181.182.448.182h1.83q.267 0 .457-.192.191-.19.191-.438m13.259-.672h-1.83q-.267 0-.448.191-.181.19-.181.457t.181.448q.181.182.448.182h1.83q.267 0 .457-.192.19-.19.19-.438 0-.267-.19-.457-.19-.191-.457-.191m-8.795-7.517v1.83q0 .267.192.448.19.181.438.181.267 0 .457-.181.191-.181.191-.448v-1.83q0-.267-.191-.457-.19-.19-.457-.19t-.448.19q-.182.19-.182.457m0 14.5q0-.267.182-.457.181-.19.448-.19t.457.19q.191.19.191.457v1.83q0 .267-.191.448-.19.181-.457.181-.248 0-.438-.181-.192-.181-.192-.448v-1.83M65.977 5.061l-.972-.952q-.172-.192-.438-.192-.267 0-.438.211-.211.19-.211.438t.211.438l.952.972q.191.191.457.2.268.01.439-.181.21-.209.21-.467 0-.257-.21-.467m8.962 8.962l.952.972q.192.172.192.419 0 .248-.211.457-.19.192-.428.201-.239.01-.448-.201l-.972-.952q-.191-.191-.2-.448-.01-.258.2-.467.19-.191.447-.191.258 0 .468.21m0-8.047q-.211.211-.468.211t-.466-.211q-.192-.19-.182-.447.01-.257.201-.468l.971-.952q.21-.191.449-.181.238.009.428.2.21.191.21.428 0 .239-.191.449l-.952.971m-10.811 9.02l.952-.972q.191-.191.448-.191t.467.191q.191.191.181.448-.009.257-.2.448l-.972.952q-.172.211-.419.201-.248-.009-.457-.201-.192-.171-.201-.438-.01-.266.201-.438M70 10" fill="#3f87f2"/><path d="M90 13.312q.682 0 1.203-.378.521-.379.675-.935.155-.089.296-.202.14-.114.267-.255.028.041-.003-.003.463-.532.288-1.408-.314-.876-1.147-1.71-.834-.833-1.71-1.147-.876-.179-1.408.286-.044-.029-.003-.001-.141.127-.255.267-.113.141-.202.296-.556.154-.935.675-.378.521-.378 1.203 0 1.383.964 2.348.965.964 2.348.964m0 .907q-1.763 0-2.991-1.228-1.228-1.228-1.228-2.991 0-.642.236-1.205.236-.562.643-.968.096-.212.26-.399.165-.187.401-.352.945-.541 2.591-.253 1.646.288 3.012 1.242 1.027.953 1.103 2.298.077.666-.085 1.22-.355.864-1.08 1.514-1.201 1.122-2.862 1.122m-4.619-4.172q0-.24-.171-.412-.172-.172-.413-.172h-1.649q-.241 0-.404.172-.164.172-.164.412 0 .241.164.405.163.163.404.163h1.649q.241 0 .413-.172.171-.172.171-.396m12.696-.633h-1.65q-.241 0-.404.172-.164.171-.164.412 0 .241.164.404.163.164.404.164h1.65q.24 0 .412-.173.172-.171.172-.395 0-.241-.172-.412-.172-.172-.412-.172m-8.643-7.491v1.65q0 .241.173.404.171.164.395.164.241 0 .412-.164.172-.163.172-.404v-1.65q0-.24-.172-.412-.171-.172-.412-.172-.241 0-.404.172-.164.172-.164.412m0 14.5q0-.24.164-.412.163-.172.404-.172.241 0 .412.172.172.172.172.412v1.65q0 .241-.172.404-.171.164-.412.164-.224 0-.395-.164-.173-.163-.173-.404v-1.65M85.886 5.06l-.876-.859q-.155-.172-.395-.172-.241 0-.395.189-.19.172-.19.396 0 .223.19.395l.859.876q.172.172.412.18.241.009.395-.163.19-.189.19-.421 0-.231-.19-.421m9.054 9.053l.859.876q.172.155.172.378 0 .224-.19.413-.171.172-.386.18-.215.009-.404-.18l-.876-.859q-.172-.173-.18-.404-.009-.232.18-.421.172-.172.404-.172.231 0 .421.189m-.001-8.227q-.189.189-.421.189-.232 0-.421-.189-.172-.172-.163-.404.008-.231.181-.421l.876-.859q.188-.172.404-.163.214.008.386.181.189.171.189.386t-.172.404l-.859.876m-10.721 9.106l.859-.876q.172-.173.404-.173.232 0 .421.173.172.171.163.403-.008.232-.181.404l-.876.859q-.155.19-.378.181-.223-.009-.412-.181-.172-.154-.181-.395-.009-.24.181-.395M90 10" fill="#4889e9"/><path d="M110 13.892q1.037 0 1.799-.641t.892-1.572q.13-.111.245-.243.115-.132.215-.291-.073.161-.242.196.248-.375-.059-1.111-.55-.735-1.447-1.633-.898-.897-1.633-1.447-.736-.314-1.111-.063.035-.165.196-.238-.159.1-.291.215-.132.115-.243.245-.931.13-1.572.892T106.108 10q0 1.625 1.133 2.759 1.134 1.133 2.759 1.133m0 .539q-1.851 0-3.141-1.29T105.569 10q0-.816.36-1.515t.965-1.147q.061-.108.187-.195.127-.087.325-.159.794-.078 2.44.427 1.646.506 3.17 1.307.929.801 1.064 1.919.134.548.068.993-.405.989-1.24 1.696-1.237 1.105-2.908 1.105m-3.923-4.348q0-.202-.144-.346-.144-.144-.347-.144h-1.385q-.203 0-.34.144t-.137.346q0 .203.137.34t.34.137h1.385q.203 0 .347-.145.144-.144.144-.332m11.869-.577h-1.386q-.202 0-.339.144-.137.145-.137.347 0 .202.137.339.137.138.339.138h1.386q.202 0 .346-.145.144-.144.144-.332 0-.202-.144-.347-.144-.144-.346-.144m-8.42-7.452V3.44q0 .202.145.339.144.137.332.137.202 0 .347-.137.144-.137.144-.339V2.054q0-.202-.144-.346-.145-.144-.347-.144-.202 0-.339.144-.138.144-.138.346m0 14.5q0-.202.138-.346.137-.144.339-.144t.347.144q.144.144.144.346v1.386q0 .202-.144.339-.145.137-.347.137-.188 0-.332-.137-.145-.137-.145-.339v-1.386m-3.772-11.496l-.736-.721q-.13-.145-.332-.145t-.332.159q-.159.145-.159.332 0 .188.159.332l.722.736q.144.145.346.152.202.007.332-.137.159-.159.159-.354 0-.194-.159-.354m9.188 9.187l.721.736q.145.131.145.318t-.16.346q-.144.145-.324.152-.181.007-.339-.152l-.736-.721q-.145-.145-.152-.34-.008-.194.152-.353.144-.145.339-.145.194 0 .354.159m-.001-8.492q-.16.159-.355.159-.194 0-.353-.159-.145-.144-.137-.339.007-.195.152-.354l.735-.721q.159-.145.34-.137.18.006.324.151.16.144.16.325 0 .18-.145.339l-.721.736m-10.59 9.233l.721-.736q.145-.145.339-.145.195 0 .354.145.145.144.137.339-.007.194-.152.339l-.736.721q-.13.16-.317.152-.188-.007-.346-.152-.145-.129-.152-.332-.008-.201.152-.331M110 10" fill="#548bdc"/><path d="M130 14.552q1.439 0 2.477-.94 1.037-.94 1.139-2.297.101-.136.187-.289.085-.154.154-.332-.188.298-.511.422.002-.197-.455-.773-.819-.576-1.789-1.545-.969-.97-1.545-1.789-.576-.467-.773-.46.124-.318.422-.506-.178.069-.332.154-.153.086-.289.187-1.357.102-2.297 1.139-.94 1.038-.94 2.477 0 1.901 1.326 3.226 1.325 1.326 3.226 1.326m0 .119q-1.951 0-3.311-1.36-1.36-1.36-1.36-3.311 0-1.014.501-1.869.5-.854 1.331-1.349.02.01.104.037.083.026.238.06.622.449 2.268 1.201 1.646.753 3.35 1.38.818.628 1.018 1.488.2.413.243.735-.462 1.131-1.423 1.904-1.275 1.084-2.959 1.084m-3.132-4.547q0-.159-.113-.271-.113-.113-.271-.113h-1.086q-.158 0-.266.113-.107.112-.107.271 0 .158.107.266.108.107.266.107h1.086q.158 0 .271-.113.113-.113.113-.26m10.929-.513h-1.085q-.159 0-.266.113-.108.113-.108.271 0 .159.108.266.107.108.266.108h1.085q.159 0 .272-.114.113-.112.113-.26 0-.158-.113-.271-.113-.113-.272-.113m-8.166-7.408v1.085q0 .159.114.266.112.108.26.108.158 0 .271-.108.113-.107.113-.266V2.203q0-.159-.113-.272-.113-.113-.271-.113-.159 0-.266.113-.108.113-.108.272m0 14.5q0-.159.108-.272.107-.113.266-.113.158 0 .271.113.113.113.113.272v1.085q0 .159-.113.266-.113.108-.271.108-.148 0-.26-.108-.114-.107-.114-.266v-1.085m-4.028-11.647l-.576-.565q-.102-.113-.26-.113-.159 0-.26.125-.125.113-.125.26 0 .147.125.26l.565.576q.113.114.271.119.159.006.26-.108.125-.124.125-.276 0-.153-.125-.278m9.34 9.34l.565.576q.114.102.114.249 0 .147-.125.271-.113.114-.254.119-.142.006-.266-.119l-.576-.565q-.114-.113-.119-.266-.006-.152.119-.277.113-.113.265-.113.153 0 .277.125m-.001-8.794q-.125.125-.278.125-.152 0-.276-.125-.114-.113-.108-.266.006-.152.119-.277l.576-.565q.125-.113.266-.107.141.005.254.118.125.113.125.254 0 .142-.113.266l-.565.577m-10.44 9.377l.565-.577q.113-.113.265-.113.153 0 .277.113.114.113.108.266-.006.152-.119.265l-.577.565q-.102.125-.248.119-.147-.005-.271-.119-.114-.101-.119-.26-.006-.157.119-.259M130 10" fill="#638ecd"/><path d="M150 15.137q1.797 0 3.078-1.205t1.357-2.939q.077-.16.137-.331.059-.172.101-.369-.29.42-.752.623-.215-.038-.805-.473-1.058-.435-2.091-1.468-1.033-1.033-1.468-2.091-.435-.603-.473-.812.203-.455.623-.745-.197.042-.369.101-.171.06-.331.137-1.734.076-2.939 1.357T144.863 10q0 2.145 1.496 3.641T150 15.137m0-.252q-2.039 0-3.462-1.423T145.115 10q0-1.189.626-2.182.626-.992 1.656-1.529-.015.114.03.242.045.127.162.255.47.916 2.116 1.888 1.646.972 3.509 1.445.72.474.978 1.105.258.294.398.506-.512 1.258-1.585 2.089-1.31 1.066-3.005 1.066m-2.43-4.725q0-.12-.085-.205-.085-.085-.205-.085h-.819q-.12 0-.201.085-.081.085-.081.205 0 .12.081.201.081.081.201.081h.819q.12 0 .205-.086.085-.085.085-.196m10.096-.456h-.82q-.119 0-.2.085-.082.085-.082.205 0 .12.082.201.081.081.2.081h.82q.119 0 .204-.086.086-.085.086-.196 0-.12-.086-.205-.085-.085-.204-.085m-7.942-7.37v.82q0 .119.086.2.085.082.196.082.12 0 .205-.082.085-.081.085-.2v-.82q0-.119-.085-.204-.085-.086-.205-.086-.12 0-.201.086-.081.085-.081.204m0 14.5q0-.119.081-.204.081-.086.201-.086.12 0 .205.086.085.085.085.204v.82q0 .119-.085.2-.085.082-.205.082-.111 0-.196-.082-.086-.081-.086-.2v-.82M145.47 5.055l-.435-.427q-.077-.085-.197-.085-.119 0-.196.094-.094.085-.094.196t.094.196l.427.435q.085.086.204.09.12.005.197-.081.094-.094.094-.209 0-.115-.094-.209m9.475 9.474l.426.435q.086.077.086.188t-.094.204q-.085.086-.192.09-.107.005-.201-.09l-.435-.426q-.085-.086-.089-.201-.005-.115.089-.209.086-.085.201-.085.115 0 .209.094m-.002-9.061q-.094.094-.209.094-.116 0-.209-.094-.086-.085-.081-.2.004-.116.089-.21l.435-.426q.094-.086.201-.081.106.004.192.089.094.086.094.192 0 .107-.086.201l-.426.435m-10.308 9.504l.427-.435q.085-.085.2-.085.116 0 .209.085.086.085.081.201-.004.115-.089.2l-.435.427q-.077.094-.188.089-.111-.004-.205-.089-.085-.077-.089-.197-.005-.119.089-.196M150 10" fill="#7090c0"/><path d="M170 15.598q2.078 0 3.551-1.414 1.473-1.414 1.53-3.445.057-.178.097-.364.038-.187.059-.397-.371.515-.941.781-.387.086-1.082-.238-1.246-.323-2.329-1.406-1.083-1.083-1.406-2.329-.324-.71-.238-1.09.266-.562.781-.933-.21.021-.397.06-.186.039-.364.096-2.031.057-3.445 1.53-1.414 1.473-1.414 3.551 0 2.337 1.63 3.968 1.631 1.63 3.968 1.63m0-.545q-2.109 0-3.581-1.472T164.947 10q0-1.327.725-2.429.724-1.1 1.912-1.671-.044.197-.029.404.015.207.102.409.349 1.284 1.995 2.428 1.646 1.145 3.635 1.497.642.352.946.803.305.2.521.326-.552 1.357-1.713 2.234-1.337 1.052-3.041 1.052m-1.877-4.865q0-.089-.064-.152-.063-.063-.152-.063h-.61q-.089 0-.149.063t-.06.152q0 .089.06.15.06.06.149.06h.61q.089 0 .152-.064.064-.063.064-.146m9.439-.411h-.61q-.089 0-.149.064-.06.063-.06.152t.06.149q.06.061.149.061h.61q.089 0 .152-.064.063-.063.063-.146 0-.089-.063-.152-.063-.064-.152-.064m-7.765-7.339v.61q0 .089.064.149.063.06.146.06.089 0 .152-.06.064-.06.064-.149v-.61q0-.089-.064-.152-.063-.063-.152-.063t-.149.063q-.061.063-.061.152m0 14.5q0-.089.061-.152.06-.063.149-.063t.152.063q.064.063.064.152v.61q0 .089-.064.149-.063.06-.152.06-.083 0-.146-.06-.064-.06-.064-.149v-.61m-4.432-11.885l-.324-.317q-.057-.064-.146-.064t-.146.071q-.07.063-.07.146 0 .082.07.145l.317.324q.064.064.153.067.089.003.146-.06.07-.07.07-.156t-.07-.156m9.581 9.581l.317.324q.064.057.064.139 0 .083-.07.153-.063.063-.143.066-.079.004-.149-.066l-.324-.318q-.063-.063-.066-.149-.004-.086.066-.155.064-.064.149-.064.086 0 .156.07m-.002-9.272q-.07.07-.156.07t-.155-.07q-.064-.063-.061-.149.003-.085.067-.155l.324-.318q.069-.063.149-.06.079.003.143.067.07.063.07.142 0 .08-.064.15l-.317.323m-10.203 9.605l.317-.323q.064-.064.149-.064.086 0 .156.064.063.063.06.149-.003.085-.067.149l-.323.317q-.058.07-.14.067-.082-.003-.152-.067-.064-.057-.067-.146-.003-.088.067-.146M170 10" fill="#7a92b5"/><path d="M190 15.951q2.294 0 3.914-1.574t1.662-3.833q.042-.191.066-.388.023-.199.027-.419-.432.587-1.086.902-.518.181-1.294-.057-1.389-.239-2.511-1.36-1.121-1.122-1.36-2.511-.238-.792-.057-1.303.315-.645.902-1.077-.22.004-.419.028-.197.023-.388.065-2.259.042-3.833 1.662-1.574 1.62-1.574 3.914 0 2.484 1.733 4.218 1.734 1.733 4.218 1.733m0-.769q-2.163 0-3.672-1.51-1.51-1.509-1.51-3.672 0-1.433.8-2.618.8-1.183 2.108-1.779-.065.26-.073.528-.008.267.056.526.257 1.566 1.903 2.842 1.646 1.277 3.731 1.536.583.26.922.573.34.128.614.188-.582 1.433-1.81 2.345-1.359 1.041-3.069 1.041m-1.454-4.972q0-.065-.047-.112-.046-.047-.112-.047h-.449q-.065 0-.11.047-.044.047-.044.112 0 .066.044.11.045.045.11.045h.449q.066 0 .112-.047.047-.047.047-.108m8.936-.377h-.449q-.065 0-.11.047-.044.047-.044.112 0 .066.044.11.045.045.11.045h.449q.066 0 .112-.047.047-.047.047-.108 0-.065-.047-.112-.046-.047-.112-.047m-7.629-7.315v.449q0 .065.047.11.047.044.108.044.065 0 .112-.044.047-.045.047-.11v-.449q0-.066-.047-.112-.047-.047-.112-.047-.066 0-.11.047-.045.046-.045.112m0 14.5q0-.066.045-.112.044-.047.11-.047.065 0 .112.047.047.046.047.112v.449q0 .065-.047.11-.047.044-.112.044-.061 0-.108-.044-.047-.045-.047-.11v-.449m-4.569-11.966l-.238-.233q-.043-.047-.108-.047t-.107.051q-.052.047-.052.108t.052.107l.233.239q.047.047.112.049.066.002.108-.044.052-.052.052-.115t-.052-.115m9.663 9.662l.234.239q.047.042.047.103 0 .06-.052.112-.047.047-.105.049-.059.002-.11-.049l-.238-.234q-.047-.047-.049-.11-.003-.063.049-.114.046-.047.109-.047.064 0 .115.051m-.003-9.433q-.051.052-.114.052t-.115-.052q-.047-.046-.044-.109.002-.063.049-.115l.238-.234q.052-.047.11-.044.059.002.105.049.052.047.052.105 0 .059-.047.11l-.234.238m-10.123 9.683l.234-.239q.047-.047.11-.047t.115.047q.046.047.044.11-.002.063-.049.11l-.239.234q-.042.051-.102.049-.061-.003-.113-.049-.046-.042-.049-.108-.002-.065.049-.107M190 10" fill="#8193ad"/><path d="M210 16.222q2.459 0 4.192-1.697 1.732-1.696 1.763-4.13.031-.202.042-.408.011-.207.003-.435-.48.643-1.197.994-.619.255-1.456.082-1.5-.173-2.651-1.324-1.151-1.151-1.324-2.651-.173-.855.082-1.465.351-.708.994-1.188-.228-.008-.435.004-.206.01-.408.041-2.434.031-4.13 1.763-1.697 1.733-1.697 4.192 0 2.597 1.812 4.41 1.813 1.812 4.41 1.812m0-.941q-2.204 0-3.742-1.539-1.539-1.538-1.539-3.742 0-1.514.858-2.763.857-1.247 2.259-1.862-.082.308-.108.623-.026.314.021.616.186 1.782 1.832 3.16 1.646 1.378 3.805 1.566.538.188.904.395.366.073.685.082-.606 1.492-1.885 2.431-1.375 1.033-3.09 1.033m-1.129-5.054q0-.048-.034-.082-.034-.033-.082-.033h-.326q-.047 0-.079.033-.033.034-.033.082 0 .047.033.08.032.032.079.032h.326q.048 0 .082-.034t.034-.078m8.55-.351h-.325q-.048 0-.08.034-.033.034-.033.082 0 .047.033.079.032.033.08.033h.325q.048 0 .082-.034t.034-.078q0-.048-.034-.082t-.082-.034m-7.525-7.297v.325q0 .048.034.08.034.033.078.033.048 0 .082-.033.034-.032.034-.08v-.325q0-.048-.034-.082t-.082-.034q-.047 0-.079.034-.033.034-.033.082m0 14.5q0-.048.033-.082.032-.034.079-.034.048 0 .082.034t.034.082v.325q0 .048-.034.08-.034.033-.082.033-.044 0-.078-.033-.034-.032-.034-.08v-.325m-4.674-12.027l-.173-.17q-.03-.034-.078-.034-.047 0-.078.037-.037.034-.037.079 0 .044.037.078l.17.172q.034.035.081.036.048.002.078-.032.038-.037.038-.083 0-.046-.038-.083m9.726 9.724l.169.173q.034.031.034.075t-.037.081q-.034.034-.076.036-.043.002-.08-.036l-.173-.169q-.034-.035-.036-.08-.001-.046.036-.083.034-.034.08-.034.045 0 .083.037m-.003-9.557q-.038.038-.083.038-.046 0-.083-.038-.034-.033-.033-.079.002-.046.036-.083l.173-.17q.037-.034.08-.032.042.001.076.035.037.034.037.077 0 .042-.034.08l-.169.172m-10.062 9.742l.17-.173q.034-.034.08-.034.045 0 .083.034.034.034.032.079-.002.046-.036.08l-.173.17q-.03.037-.074.035-.044-.001-.082-.035-.034-.031-.035-.078-.002-.048.035-.078M210 10" fill="#8794a7"/><path d="M230 16.43q2.586 0 4.405-1.791 1.82-1.791 1.842-4.359.021-.209.024-.422.001-.214-.017-.449-.515.687-1.282 1.066-.696.311-1.58.188-1.585-.122-2.759-1.296t-1.296-2.759q-.123-.903.188-1.59.379-.757 1.066-1.272-.235-.018-.449-.016-.213.002-.422.023-2.568.022-4.359 1.842Q223.57 7.414 223.57 10q0 2.684 1.873 4.557 1.873 1.873 4.557 1.873m0-1.073q-2.235 0-3.796-1.561T224.643 10q0-1.577.903-2.874.901-1.296 2.374-1.927-.094.346-.134.697-.04.349-.007.685.133 1.948 1.779 3.404t3.861 1.589q.503.134.889.259.388.031.741.001-.624 1.537-1.943 2.496-1.387 1.027-3.106 1.027m-.88-5.117q0-.034-.024-.058t-.058-.024h-.231q-.034 0-.056.024-.023.024-.023.058 0 .033.023.056.022.023.056.023h.231q.034 0 .058-.024t.024-.055m8.254-.331h-.231q-.033 0-.056.024t-.023.058q0 .034.023.057t.056.023h.231q.034 0 .058-.025.024-.024.024-.055 0-.034-.024-.058t-.058-.024m-7.445-7.283v.231q0 .033.025.056.024.023.055.023.034 0 .058-.023t.024-.056v-.231q0-.034-.024-.058t-.058-.024q-.034 0-.057.024t-.023.058m0 14.5q0-.034.023-.058t.057-.024q.034 0 .058.024t.024.058v.231q0 .033-.024.056t-.058.023q-.031 0-.055-.023-.025-.023-.025-.056v-.231m-4.754-12.075l-.123-.12q-.022-.024-.055-.024-.034 0-.056.026-.026.024-.026.056 0 .031.026.055l.121.123q.024.024.057.025.034.001.056-.023.026-.026.026-.059 0-.032-.026-.059m9.773 9.772l.121.123q.024.022.024.053t-.027.058q-.024.024-.054.025-.03.001-.056-.025l-.123-.12q-.024-.025-.025-.057-.002-.033.025-.059.024-.024.056-.024.033 0 .059.026m-.003-9.651q-.026.026-.059.026-.032 0-.059-.026-.024-.024-.023-.057.002-.032.026-.059l.122-.12q.027-.024.057-.023.03.001.054.025.027.024.027.055 0 .03-.024.056l-.121.123m-10.014 9.786l.12-.122q.024-.024.057-.024.032 0 .059.024.024.024.023.056-.002.033-.026.057l-.122.12q-.022.027-.053.025-.032-.001-.058-.025-.024-.021-.025-.055-.002-.034.025-.056M230 10" fill="#8c95a3"/><path d="M250 16.59q2.683 0 4.569-1.864 1.886-1.863 1.901-4.534.015-.216.01-.433-.005-.219-.031-.459-.543.72-1.347 1.121-.756.354-1.676.27-1.65-.085-2.841-1.276-1.191-1.191-1.276-2.841-.084-.94.27-1.686.401-.794 1.121-1.337-.24-.026-.459-.03-.217-.006-.433.009-2.671.015-4.534 1.901Q243.41 7.317 243.41 10q0 2.751 1.92 4.67 1.919 1.92 4.67 1.92m0-1.175q-2.259 0-3.837-1.578-1.578-1.578-1.578-3.837 0-1.625.937-2.96.935-1.334 2.462-1.975-.103.374-.154.752-.05.377-.027.738.091 2.076 1.737 3.592 1.646 1.515 3.905 1.607.475.092.878.155.403-.002.782-.062-.637 1.571-1.986 2.546-1.397 1.022-3.119 1.022m-.689-5.165q0-.024-.016-.04-.017-.017-.04-.017h-.158q-.023 0-.039.017-.016.016-.016.04 0 .023.016.038.016.016.039.016h.158q.023 0 .04-.017.016-.016.016-.037m8.027-.315h-.158q-.023 0-.039.016-.016.017-.016.04t.016.039q.016.015.039.015h.158q.024 0 .04-.016.017-.017.017-.038 0-.023-.017-.04-.016-.016-.04-.016m-7.383-7.273v.158q0 .023.016.039.017.016.038.016.023 0 .04-.016.016-.016.016-.039v-.158q0-.024-.016-.04-.017-.017-.04-.017t-.039.017q-.015.016-.015.04m0 14.5q0-.024.015-.04.016-.017.039-.017t.04.017q.016.016.016.04v.158q0 .023-.016.039-.017.016-.04.016-.021 0-.038-.016-.016-.016-.016-.039v-.158m-4.817-12.111l-.084-.083q-.015-.016-.038-.016t-.038.018q-.018.016-.018.038 0 .021.018.038l.083.084q.016.016.039.017.023.001.038-.016.018-.018.018-.04 0-.022-.018-.04m9.811 9.809l.082.084q.017.015.017.036 0 .022-.018.04-.017.016-.037.017-.021.001-.039-.017l-.084-.083q-.017-.016-.018-.038-.001-.023.018-.041.016-.016.038-.016.023 0 .041.018m-.003-9.725q-.019.019-.041.019-.022 0-.04-.019-.017-.016-.016-.038.001-.023.017-.041l.084-.082q.019-.017.039-.016.021.001.037.017.019.017.019.037 0 .021-.017.039l-.082.084m-9.979 9.822l.083-.084q.016-.017.039-.017.022 0 .04.017.017.016.016.038-.001.023-.018.039l-.084.083q-.015.018-.036.017-.021-.001-.04-.017-.016-.015-.017-.038-.001-.023.017-.038M250 10" fill="#8f969f"/><path d="M270 16.711q2.757 0 4.694-1.918 1.936-1.918 1.946-4.668.01-.22 0-.442-.011-.222-.043-.466-.564.745-1.397 1.162-.8.387-1.748.332-1.7-.055-2.904-1.259t-1.259-2.904q-.055-.968.332-1.759.417-.822 1.162-1.386-.244-.032-.466-.042-.222-.011-.442-.001-2.75.01-4.668 1.946-1.918 1.937-1.918 4.694 0 2.801 1.955 4.756T270 16.711m0-1.252q-2.278 0-3.868-1.591-1.591-1.59-1.591-3.868 0-1.661.962-3.024t2.53-2.014q-.111.397-.169.796-.058.398-.043.778.059 2.173 1.705 3.734 1.646 1.561 3.938 1.62.455.06.87.076.415-.027.814-.109-.647 1.597-2.02 2.584-1.403 1.018-3.128 1.018m-.543-5.202q0-.015-.011-.026t-.026-.011h-.103q-.015 0-.026.011-.01.011-.01.026t.01.025q.011.011.026.011h.103q.015 0 .026-.011t.011-.025m7.854-.303h-.103q-.015 0-.025.011-.011.01-.011.026 0 .015.011.025.01.01.025.01h.103q.015 0 .026-.011.011-.01.011-.024 0-.016-.011-.026-.011-.011-.026-.011m-7.337-7.265v.103q0 .015.011.025.01.011.024.011.016 0 .026-.011.011-.01.011-.025v-.103q0-.015-.011-.026-.01-.011-.026-.011-.015 0-.025.011-.01.011-.01.026m0 14.5q0-.015.01-.026t.025-.011q.016 0 .026.011.011.011.011.026v.103q0 .015-.011.025-.01.011-.026.011-.014 0-.024-.011-.011-.01-.011-.025v-.103M265.111 5.05l-.055-.054q-.01-.01-.025-.01-.015 0-.025.012-.012.01-.012.024t.012.025l.054.055q.011.011.026.011.015.001.025-.01.011-.012.011-.026 0-.015-.011-.027m9.838 9.837l.054.055q.011.01.011.024t-.012.026q-.011.011-.024.011-.014.001-.026-.011l-.054-.054q-.011-.011-.012-.025 0-.015.012-.027.01-.01.025-.01.014 0 .026.011m-.003-9.779q-.012.011-.027.011-.014 0-.026-.011-.011-.011-.01-.026 0-.014.011-.026l.055-.054q.012-.011.025-.01.014 0 .024.011.012.011.012.024 0 .014-.01.026l-.054.055m-9.951 9.847l.054-.054q.011-.011.025-.011.015 0 .027.011.01.01.01.025-.001.014-.012.025l-.054.054q-.01.012-.024.011-.014 0-.026-.011-.011-.01-.011-.025-.001-.015.011-.025M270 10" fill="#92969c"/><path d="M290 16.801q2.812 0 4.786-1.959 1.974-1.959 1.98-4.766.006-.224-.008-.449-.015-.225-.051-.471-.58.763-1.434 1.193-.833.411-1.802.378-1.736-.034-2.95-1.248-1.214-1.214-1.248-2.95-.033-.989.378-1.813.43-.843 1.193-1.423-.246-.036-.471-.05-.225-.015-.449-.009-2.807.006-4.766 1.98T283.199 10q0 2.839 1.981 4.82 1.981 1.981 4.82 1.981m0-1.309q-2.291 0-3.892-1.6-1.6-1.601-1.6-3.892 0-1.688.982-3.073.98-1.383 2.58-2.04-.117.412-.181.826-.064.414-.055.809.036 2.244 1.682 3.839 1.646 1.595 3.962 1.631.44.036.864.016.424-.045.838-.144-.655 1.616-2.045 2.613-1.409 1.015-3.135 1.015m-.436-5.229q0-.01-.006-.016-.006-.007-.016-.007h-.062q-.009 0-.015.007-.006.006-.006.016 0 .009.006.015t.015.006h.062q.01 0 .016-.007.006-.006.006-.014m7.727-.295h-.063q-.009 0-.015.007-.006.006-.006.015t.006.016q.006.006.015.006h.063q.009 0 .016-.007.006-.006.006-.015t-.006-.015q-.007-.007-.016-.007m-7.303-7.259v.063q0 .009.007.015.006.006.015.006t.015-.006q.007-.006.007-.015v-.063q0-.009-.007-.016-.006-.006-.015-.006t-.016.006q-.006.007-.006.016m0 14.5q0-.009.006-.016.007-.006.016-.006.009 0 .015.006.007.007.007.016v.063q0 .009-.007.015-.006.006-.015.006t-.015-.006q-.007-.006-.007-.015v-.063M285.09 5.05l-.033-.033q-.006-.006-.015-.006t-.015.007q-.007.007-.007.015 0 .009.007.015l.033.033q.006.007.015.007t.015-.006q.007-.007.007-.016 0-.009-.007-.016m9.859 9.858l.033.033q.006.006.006.014 0 .009-.007.016-.006.006-.014.007-.008 0-.016-.007l-.033-.033q-.006-.006-.007-.015 0-.009.007-.016.007-.006.016-.006.008 0 .015.007m-.003-9.821q-.007.007-.016.007-.009 0-.016-.007-.006-.007-.006-.015 0-.009.007-.016l.033-.033q.007-.006.015-.006t.015.007q.007.006.007.015 0 .008-.007.015l-.032.033m-9.93 9.867l.032-.033q.007-.006.015-.006.009 0 .016.006.007.007.007.016-.001.008-.007.015l-.033.032q-.006.008-.015.007-.008 0-.015-.007-.007-.005-.007-.015-.001-.009.007-.015M290 10" fill="#94969a"/><path d="M310 16.865q2.851 0 4.852-1.988 2-1.988 2.004-4.837.003-.226-.014-.453-.018-.227-.056-.475-.592.777-1.46 1.215-.858.428-1.842.411-1.762-.018-2.983-1.239t-1.239-2.983q-.017-1.004.411-1.852.438-.858 1.215-1.45-.248-.038-.475-.055-.227-.018-.453-.015-2.849.004-4.837 2.004-1.988 2.001-1.988 4.852 0 2.865 2 4.865t4.865 2m0-1.35q-2.301 0-3.908-1.607-1.607-1.607-1.607-3.908 0-1.707.995-3.107.994-1.399 2.615-2.06-.12.424-.188.849-.069.424-.064.83.019 2.295 1.665 3.914 1.646 1.618 3.98 1.638.43.019.859-.025.431-.059.856-.17-.661 1.63-2.063 2.633-1.412 1.013-3.14 1.013m-.359-5.249q0-.004-.003-.008-.004-.003-.008-.003h-.034q-.005 0-.008.003-.003.004-.003.008 0 .005.003.009.003.003.008.003h.034q.004 0 .008-.004.003-.003.003-.008m7.635-.288h-.033q-.005 0-.008.004-.003.003-.003.008t.003.008q.003.004.008.004h.033q.005 0 .009-.004.003-.003.003-.008t-.003-.008q-.004-.004-.009-.004m-7.278-7.254v.033q0 .005.004.008.003.003.008.003t.008-.003q.004-.003.004-.008v-.033q0-.005-.004-.009-.003-.003-.008-.003t-.008.003q-.004.004-.004.009m0 14.5q0-.005.004-.009.003-.003.008-.003t.008.003q.004.004.004.009v.033q0 .005-.004.008-.003.003-.008.003t-.008-.003q-.004-.003-.004-.008v-.033M305.075 5.05l-.017-.018q-.003-.003-.008-.003t-.008.004q-.004.003-.004.008 0 .004.004.008l.017.017q.004.004.008.004.005 0 .008-.003.004-.004.004-.009 0-.004-.004-.008m9.875 9.872l.017.018q.003.003.003.008 0 .004-.003.008-.004.004-.008.004-.005 0-.008-.004l-.018-.017q-.003-.004-.004-.008 0-.005.004-.009.003-.003.008-.003t.009.003m-.004-9.85q-.004.004-.008.004-.005 0-.009-.004-.003-.003-.003-.008t.003-.008l.018-.018q.004-.003.008-.003.005 0 .008.004.004.003.004.007 0 .005-.004.009l-.017.017m-9.916 9.882l.018-.018q.003-.003.008-.003.004 0 .008.003.004.004.004.008-.001.005-.004.008l-.018.018q-.003.004-.007.003-.005 0-.009-.003-.003-.003-.003-.008-.001-.005.003-.008M310 10" fill="#959799"/><path d="M330 16.907q2.877 0 4.895-2.007t2.02-4.883q.001-.228-.018-.456-.019-.229-.06-.478-.598.786-1.477 1.23-.874.439-1.867.432-1.779-.008-3.005-1.233-1.225-1.226-1.233-3.005-.007-1.014.432-1.878.444-.868 1.23-1.466-.249-.041-.478-.059-.228-.02-.456-.019-2.876.002-4.883 2.02-2.007 2.018-2.007 4.895 0 2.883 2.012 4.895 2.012 2.012 4.895 2.012m0-1.376q-2.307 0-3.919-1.612T324.469 10q0-1.72 1.005-3.129 1.003-1.409 2.638-2.074-.123.432-.194.864-.071.432-.069.844.009 2.329 1.655 3.964 1.646 1.634 3.991 1.642.422.008.856-.053.435-.066.867-.185-.664 1.639-2.074 2.646-1.416 1.012-3.144 1.012m-.308-5.262q0-.002-.002-.003-.001-.002-.003-.002h-.014q-.002 0-.004.002-.001.001-.001.003t.001.004q.002.001.004.001h.014q.002 0 .003-.002.002-.001.002-.003m7.575-.284h-.014q-.002 0-.004.002-.001.001-.001.003t.001.004q.002.001.004.001h.014q.002 0 .003-.002.002-.001.002-.003t-.002-.003q-.001-.002-.003-.002m-7.262-7.252v.014q0 .002.002.004.001.001.003.001t.003-.001q.002-.002.002-.004v-.014q0-.002-.002-.003-.001-.002-.003-.002t-.004.002q-.001.001-.001.003m0 14.5q0-.002.001-.003.002-.002.004-.002t.003.002q.002.001.002.003v.014q0 .002-.002.004-.001.001-.003.001t-.003-.001q-.002-.002-.002-.004v-.014M325.066 5.05l-.008-.008q-.001-.001-.003-.001t-.003.002q-.002.001-.002.003t.002.003l.007.008q.001.001.003.001t.004-.001q.001-.002.001-.004t-.001-.003m9.884 9.882l.007.008q.002.001.002.003t-.002.003q-.002.002-.003.002-.002 0-.004-.002l-.007-.007q-.002-.002-.002-.003 0-.002.002-.004.001-.002.003-.002t.004.002m-.004-9.869q-.001.001-.003.001t-.004-.001q-.001-.002-.001-.004t.001-.003l.008-.008q.001-.001.003-.001t.003.001q.002.002.002.004t-.002.003l-.007.008m-9.906 9.89l.007-.007q.002-.002.004-.002t.003.002q.002.001.002.003t-.002.004l-.007.007q-.002.002-.004.002-.001 0-.003-.002-.002-.001-.002-.003t.002-.004M330 10" fill="#969798"/><path d="M350 16.931q2.891 0 4.919-2.018 2.028-2.018 2.029-4.909 0-.229-.02-.457-.02-.23-.062-.48-.603.791-1.487 1.238-.882.446-1.881.444-1.789-.002-3.017-1.23t-1.23-3.017q-.002-1.02.444-1.892.447-.873 1.238-1.476-.25-.042-.48-.061-.228-.021-.457-.021-2.891.001-4.909 2.029T343.069 10q0 2.893 2.019 4.912T350 16.931m0-1.392q-2.311 0-3.925-1.614-1.614-1.614-1.614-3.925 0-1.727 1.009-3.142 1.009-1.414 2.652-2.081-.125.436-.197.873-.073.435-.072.851.002 2.348 1.648 3.992 1.646 1.643 3.998 1.645.418.002.854-.068.438-.072.873-.196-.666 1.645-2.081 2.654-1.416 1.011-3.145 1.011m-.28-5.268v-.001l-.001-.001h-.003q-.001 0-.001.001-.001 0-.001.001h.001q0 .001.001.001h.003l.001-.001m7.542-.282h-.004-.001v.002h.006V9.99v-.001h-.001m-7.253-7.251v.005h.002v-.005-.001h-.002v.001m0 14.5v-.001h.002v.006h-.001-.001v-.005M345.06 5.05l-.001-.002h-.002v.002l.002.001q0 .001.001.001v-.001q.001 0 .001-.001h-.001m9.89 9.887l.002.002v.002h-.002l-.002-.002v-.001-.001h.002m-.004-9.88q0 .001-.001.001l-.001-.001v-.001h.001l.001-.002.001-.001.001.001v.001l-.002.002m-9.901 9.896l.002-.002h.002v.002l-.002.002h-.001-.001v-.001-.001M370 16.938q2.896 0 4.927-2.021 2.031-2.021 2.031-4.917 0-.229-.02-.458-.021-.23-.063-.48-.604.792-1.49 1.24-.885.448-1.885.448-1.792 0-3.021-1.229-1.229-1.229-1.229-3.021 0-1.021.448-1.896t1.24-1.479q-.25-.042-.48-.062-.229-.021-.458-.021-2.896 0-4.917 2.031T363.062 10q0 2.896 2.021 4.917T370 16.938m0-1.396q-2.312 0-3.927-1.615-1.615-1.615-1.615-3.927 0-1.729 1.011-3.146 1.01-1.416 2.656-2.083-.125.437-.198.875-.073.437-.073.854 0 2.354 1.646 4t4 1.646q.417 0 .854-.073.438-.073.875-.198-.667 1.646-2.083 2.656-1.417 1.011-3.146 1.011M370 10" fill="#979797"/></svg>